<?xml version="1.0" standalone="no"?><!DOCTYPE svg PUBLIC "-//W3C//DTD SVG 1.1//EN" "http://www.w3.org/Graphics/SVG/1.1/DTD/svg11.dtd"><svg t="1555998458610" class="icon" style="" viewBox="0 0 1070 1024" version="1.1" xmlns="http://www.w3.org/2000/svg" p-id="11480" xmlns:xlink="http://www.w3.org/1999/xlink" width="208.984375" height="200"><defs><style type="text/css"></style></defs><path d="M586.733974 1024l-207.376281-176.338911-208.990942 176.338911V589.458871h416.367223z" fill="#5697CF" p-id="11481"></path><path d="M3.428755 375.139548a375.085726 375.085726 0 0 0 562.691382 324.869773A375.103667 375.103667 0 0 0 753.689911 375.139548c0-207.178934-167.942674-375.139548-375.121608-375.139548C171.371429 0 3.428755 167.960615 3.428755 375.139548" fill="#F8D00E" p-id="11482"></path><path d="M378.568303 96.52084C227.848679 96.52084 105.708552 218.678907 105.708552 369.380591c0 150.701684 122.140126 272.84181 272.859751 272.84181s272.84181-122.140126 272.84181-272.84181S529.287928 96.52084 378.568303 96.52084z" fill="#EBB407" p-id="11483"></path><path d="M503.776285 127.073813L225.426687 595.289591a272.05242 272.05242 0 0 0 153.141616 46.91487c150.719624 0 272.84181-122.140126 272.84181-272.841811 0-105.52706-59.939801-196.827163-147.633828-242.288837z" fill="#FBCC44" p-id="11484"></path><path d="M378.568303 657.633443c-158.900573 0-288.270792-129.244634-288.270792-288.252852 0-158.882632 129.244634-288.252851 288.270792-288.252851 158.882632 0 288.252851 129.244634 288.252852 288.252851s-129.370219 288.252851-288.252852 288.252852z m0-545.719502c-141.982515 0-257.574294 115.60972-257.574294 257.574294 0 141.982515 115.59178 257.430769 257.574294 257.430769s257.538413-115.59178 257.538413-257.556354c0-141.982515-115.555898-257.44871-257.538413-257.448709z" fill="#D19D0A" p-id="11485"></path><path d="M277.956989 284.557072v-40.366522h8.23477c25.260473 0 44.080242-5.615432 56.441369-16.882177 10.154423-9.347093 15.249575-20.595897 15.249575-33.782294h47.381327v292.522732h-57.679275V284.557072h-69.627766z" fill="#D19D0A" p-id="11486"></path><path d="M306.949122 284.557072v-40.366522h8.234771c25.260473 0 44.080242-5.615432 56.441368-16.882177 10.154423-9.347093 15.267516-20.595897 15.267516-33.782294h47.381327v292.522732h-57.679275V284.557072h-69.645707z" fill="#FFFFFF" p-id="11487"></path></svg>