<?xml version="1.0" standalone="no"?><!DOCTYPE svg PUBLIC "-//W3C//DTD SVG 1.1//EN" "http://www.w3.org/Graphics/SVG/1.1/DTD/svg11.dtd"><svg t="1555998597843" class="icon" style="" viewBox="0 0 1089 1024" version="1.1" xmlns="http://www.w3.org/2000/svg" p-id="13214" xmlns:xlink="http://www.w3.org/1999/xlink" width="212.6953125" height="200"><defs><style type="text/css"></style></defs><path d="M602.089729 1024L394.726336 847.647677 185.740987 1024V589.474786h416.348742z" fill="#5697CF" p-id="13215"></path><path d="M18.785424 375.165195a375.112305 375.112305 0 1 0 750.277499 0c0-207.187094-167.92521-375.147565-375.147565-375.147565-207.187094 0-375.129935 167.94284-375.129934 375.147565" fill="#EFEFEF" p-id="13216"></path><path d="M393.897728 96.54157c-150.700756 0-272.841003 122.140248-272.841003 272.858633 0 150.683126 122.140248 272.805744 272.841003 272.805744 150.718386 0 272.823373-122.122618 272.823374-272.805744C666.738732 218.681817 544.633744 96.54157 393.897728 96.54157z" fill="#C6C6C6" p-id="13217"></path><path d="M519.140846 127.076632l-278.376806 468.216035a271.712687 271.712687 0 0 0 153.133688 46.89565c150.718386 0 272.823373-122.122618 272.823374-272.805744 0.01763-105.532841-59.906548-196.838318-147.580256-242.305941z" fill="#EFEFEF" p-id="13218"></path><path d="M393.897728 657.596887c-158.898679 0-288.267204-129.209855-288.267204-288.214314C105.630524 210.501524 234.875639 81.132999 393.897728 81.132999c158.88105 0 288.267204 129.227485 288.267204 288.267204 0 158.986829-129.368524 288.196684-288.267204 288.196684z m0-545.664377c-141.973934 0-257.573472 115.617169-257.573472 257.573473s115.599539 257.414803 257.573472 257.414803c141.973934 0 257.555843-115.581909 257.555843-257.520583 0-141.991564-115.564279-257.467693-257.555843-257.467693z" fill="#919191" p-id="13219"></path><path d="M334.907938 296.888246h-56.02796c0-41.201178 12.640669-70.308214 37.904378-87.356369 15.919839-10.719006 35.154107-16.078508 57.667545-16.078509 29.107036 0 53.154279 8.180294 72.106468 24.523252 18.952189 16.342957 28.419469 38.926915 28.419469 67.769502 0 22.248989-6.593599 41.888745-19.763167 58.919271-8.797342 11.547613-22.531068 23.624124-41.218807 36.264793-12.094141 8.515263-24.029613 16.889486-35.841675 25.140299-16.201918 12.094141-26.092316 21.70246-29.671195 28.842588h126.477214v51.091576h-199.394659c0-21.966909 3.296799-39.826042 9.890398-53.559768 9.890398-20.873853 29.248076-41.747706 58.090663-62.621559 23.888573-17.294974 39.279514-28.983627 46.137562-35.013068 18.388031-16.201918 27.608491-33.232443 27.608491-51.091576 0-10.983455-3.17339-20.327325-9.484909-28.01398-7.422206-9.061791-17.718093-13.592686-30.905291-13.592686-17.577054 0-29.671195 6.452559-36.247164 19.357678-3.825698 7.669025-5.747362 19.481087-5.747361 35.418556z" fill="#727272" p-id="13220"></path><path d="M363.909195 296.888246h-56.02796c0-41.201178 12.640669-70.308214 37.904378-87.356369 15.919839-10.719006 35.154107-16.078508 57.667545-16.078509 29.107036 0 53.154279 8.180294 72.088838 24.523252 18.952189 16.342957 28.437099 38.926915 28.437099 67.769502 0 22.248989-6.593599 41.888745-19.780797 58.919271-8.797342 11.547613-22.513438 23.624124-41.201177 36.264793-12.094141 8.515263-24.029613 16.889486-35.841675 25.140299-16.201918 12.094141-26.092316 21.70246-29.671195 28.842588h126.494844v51.091576h-199.39466c0-21.966909 3.296799-39.826042 9.890398-53.559768 9.890398-20.873853 29.248076-41.747706 58.090664-62.621559 23.888573-17.294974 39.279514-28.983627 46.137562-35.013068 18.405661-16.201918 27.590861-33.232443 27.590861-51.091576 0-10.983455-3.15576-20.327325-9.46728-28.01398-7.422206-9.061791-17.718093-13.592686-30.90529-13.592686-17.577054 0-29.671195 6.452559-36.247164 19.357678-3.843328 7.669025-5.764991 19.481087-5.764991 35.418556z" fill="#FFFFFF" p-id="13221"></path></svg>