<?xml version="1.0" standalone="no"?><!DOCTYPE svg PUBLIC "-//W3C//DTD SVG 1.1//EN" "http://www.w3.org/Graphics/SVG/1.1/DTD/svg11.dtd"><svg t="1555998473200" class="icon" style="" viewBox="0 0 1087 1024" version="1.1" xmlns="http://www.w3.org/2000/svg" p-id="12185" xmlns:xlink="http://www.w3.org/1999/xlink" width="212.3046875" height="200"><defs><style type="text/css"></style></defs><path d="M596.321701 1023.964661l-207.316136-176.323849-208.977067 176.323849V589.436543h416.293203z" fill="#5697CF" p-id="12186"></path><path d="M13.069479 375.12329a375.087951 375.087951 0 0 0 562.667265 324.853588A375.070281 375.070281 0 0 0 763.333728 375.12329c0-207.192449-167.94851-375.12329-375.140959-375.12329s-375.12329 167.94851-375.12329 375.12329" fill="#E5AA33" p-id="12187"></path><path d="M388.192769 96.528428c-150.703087 0-272.834607 122.13152-272.834608 272.834608 0 150.667748 122.13152 272.781599 272.834608 272.781598 150.720756 0 272.816938-122.096181 272.816938-272.781598 0-150.703087-122.096181-272.834607-272.816938-272.834608z" fill="#C48E22" p-id="12188"></path><path d="M513.398781 127.061308L235.051292 595.267475a271.880455 271.880455 0 0 0 153.141477 46.85949c150.720756 0 272.816938-122.096181 272.816938-272.781599 0-105.522199-59.899574-196.820458-147.610926-242.284058z" fill="#E5AA33" p-id="12189"></path><path d="M388.192769 657.623108c-158.884061 0-288.260073-129.269995-288.260073-288.260072 0-158.884061 129.234656-288.242403 288.260073-288.242404 158.884061 0 288.242403 129.216986 288.242403 288.242404 0.017669 158.990078-129.358342 288.260073-288.242403 288.260072z m0-545.686884c-141.974359 0-257.550498 115.593809-257.550498 257.568167s115.576139 257.373803 257.550498 257.373803c141.956689 0 257.532828-115.5408 257.532828-257.515158S530.149458 111.936224 388.192769 111.936224z" fill="#7C530B" p-id="12190"></path><path d="M346.952177 357.930875v-41.205253h9.064449c13.729194 0 24.030507-1.784619 30.903939-5.353855 12.085932-6.025296 18.111228-17.439787 18.111228-34.190465 0-8.799406-2.049661-16.344279-6.184321-22.652287-6.308008-9.894915-16.485635-14.842372-30.479872-14.842372-17.033389 0-28.571567 6.59072-34.614532 19.789829-3.304195 7.138474-4.947457 16.485635-4.947458 28.006143H275.249384c0-28.571567 7.827584-51.100167 23.482753-67.568133 16.750677-17.581143 41.205253-26.36288 73.328387-26.36288 23.624109 0 43.537625 5.777923 59.740548 17.298432 20.620296 14.55966 30.921609 35.975083 30.921609 64.263938 0 13.729194-3.710593 25.815126-11.131779 36.257795a56.966438 56.966438 0 0 1-23.889152 19.365762c14.276949 5.2125 25.196694 13.729194 32.759236 25.550083 7.544873 11.80322 11.326144 26.221524 11.326144 43.254914 0 27.741101-9.205805 50.411057-27.599745 67.974531-18.411609 17.581143-42.424447 26.38055-72.109192 26.38055-24.436906 0-44.77449-4.806101-60.977413-14.418305-27.193346-15.920211-40.798854-43.678981-40.798854-83.223301h56.454023c-0.282712 12.916398 1.784619 23.482753 6.184322 31.716736 7.138474 13.18144 19.224406 19.77216 36.257795 19.77216 12.368644 0 22.387245-3.851949 30.073473-11.538178 8.799406-8.799406 13.18144-21.009025 13.181441-36.664193 0-17.581143-7.562542-29.525719-22.652288-35.851397-9.347161-3.83428-23.624109-5.760254-42.848515-5.760254z" fill="#7C5D19" p-id="12191"></path><path d="M375.947812 357.930875v-41.205253h9.064448c13.746864 0 24.030507-1.784619 30.90394-5.353855 12.103601-6.025296 18.128898-17.439787 18.128897-34.190465 0-8.799406-2.06733-16.344279-6.184321-22.652287-6.325678-9.894915-16.485635-14.842372-30.497542-14.842372-17.033389 0-28.571567 6.59072-34.614532 19.789829-3.304195 7.138474-4.947457 16.485635-4.947457 28.006143h-53.556227c0-28.571567 7.827584-51.100167 23.482753-67.568133 16.750677-17.581143 41.205253-26.36288 73.328387-26.36288 23.641779 0 43.537625 5.777923 59.758218 17.298432 20.602626 14.55966 30.903939 35.992753 30.903939 64.263938 0 13.729194-3.710593 25.815126-11.131779 36.257795a57.019447 57.019447 0 0 1-23.906821 19.365762c14.294618 5.2125 25.196694 13.729194 32.759236 25.550083s11.343813 26.221524 11.343813 43.254914c0 27.741101-9.205805 50.411057-27.617414 67.974531s-42.424447 26.38055-72.109192 26.38055c-24.436906 0-44.75682-4.806101-60.959743-14.418305-27.193346-15.920211-40.798854-43.678981-40.798854-83.223301h56.454023c-0.282712 12.916398 1.784619 23.482753 6.184321 31.716736 7.138474 13.18144 19.224406 19.77216 36.257796 19.77216 12.350974 0 22.387245-3.851949 30.073473-11.538178 8.781737-8.799406 13.18144-21.009025 13.18144-36.664193 0-17.581143-7.562542-29.525719-22.669957-35.851397-9.329491-3.83428-23.60644-5.760254-42.830845-5.760254z" fill="#FFFFFF" p-id="12192"></path></svg>