<?xml version="1.0" standalone="no"?><!DOCTYPE svg PUBLIC "-//W3C//DTD SVG 1.1//EN" "http://www.w3.org/Graphics/SVG/1.1/DTD/svg11.dtd"><svg t="1555313362856" class="icon" style="" viewBox="0 0 1030 1024" version="1.1" xmlns="http://www.w3.org/2000/svg" p-id="20250" xmlns:xlink="http://www.w3.org/1999/xlink" width="201.171875" height="200"><defs><style type="text/css"></style></defs><path d="M429.7 278.5c-116.9 3.4-233.9 14.2-350.9 32.3C58 314.1 42.7 332 42.7 353v31H128c11.8 0 21.3 9.6 21.3 21.3v213.3c0 11.8-9.6 21.3-21.3 21.3H42.7v57.4c0 8.5 5.1 16.3 13 19.6 113.3 48.3 208.6 72.3 285.7 72.3 14.2 0 24.3-2.7 32.5-7.8 6.7-4.1 11.9-9.4 21.3-20.7-0.3 0.4 4.2-5 5.5-6.6 13.5-16.1 24-25.9 39.3-34.3 19.2-10.6 42.6-16 72.2-16 29.5 0 53 5.4 72.3 16 15.3 8.4 26 18.2 39.6 34.3 1.4 1.6 6.1 7.3 5.9 7 9.3 11.1 14.6 16.4 21.2 20.5 8.1 5 17.9 7.6 31.7 7.6 75.9 0 171.2-24 285.6-72.4 7.9-3.3 13-11.1 13-19.7V640H896c-11.8 0-21.3-9.6-21.3-21.3V405.3c0-11.8 9.6-21.3 21.3-21.3h85.3v-31c0-21-15.3-38.9-36.1-42.2-117-18.1-233.9-28.9-350.9-32.3-9.9 36.2-43 62.8-82.3 62.8s-72.4-26.6-82.3-62.8z m-0.6-42.6c9-37.4 42.8-65.2 82.9-65.2s73.9 27.8 82.9 65.2c73.9 2.2 147.7 7.2 221.6 15.1C759.2 138 642.6 64 512 64c-130.3 0-247.1 73.7-304.5 187 73.8-7.9 147.7-13 221.6-15.1zM42.7 426.7v170.7h64V426.7h-64zM1024 634.3v63c0 25.7-15.4 48.9-39.1 59-48.9 20.7-94.7 37.1-137.4 49.4-67.3 120.6-194.7 197-335.5 197-140.6 0-267.9-76.2-335.3-196.7-43-12.3-88.9-28.8-137.8-49.7C15.3 746.2 0 723.1 0 697.4V353c0-42.1 30.7-77.9 72.3-84.3 28.5-4.4 57.1-8.4 85.6-12 0.2-0.6 0.4-1.1 0.6-1.7C218.4 114.5 356.6 21.3 512 21.3c156.3 0 294.9 94.3 354.2 235.4 28.5 3.6 57 7.5 85.5 11.9 41.6 6.4 72.3 42.2 72.3 84.3v250c4.2 3.9 6.9 9.5 6.9 15.7 0 6.3-2.7 11.8-6.9 15.7z m-42.7-207.6h-64v170.7h64V426.7z m-194 393.8c-37.7 7.7-72.6 11.5-104.7 11.5-21.6 0-39.1-4.7-54.2-14-11.5-7.1-19.4-15-31.5-29.3 0.2 0.2-4.5-5.4-5.7-6.9-10.5-12.4-17.7-19-27.4-24.4-12.7-7-29.1-10.7-51.8-10.7-22.7 0-39 3.8-51.6 10.7-9.6 5.3-16.7 11.9-27.1 24.3-1.2 1.4-5.6 6.8-5.3 6.4-12.1 14.6-20 22.5-31.6 29.7-15.2 9.4-33 14.2-55 14.2-32.3 0-67.1-3.8-104.5-11.3C300.2 907 401.5 960 512 960c110.7 0 212-53.1 275.3-139.5zM512 298.7c23.6 0 42.7-19.1 42.7-42.7s-19.1-42.7-42.7-42.7-42.7 19.1-42.7 42.7 19.1 42.7 42.7 42.7z" fill="#2c2c2c" p-id="20251"></path></svg>